Coordinates
version=1
nRows=18
nColumns=22
inDegrees=yes

Units are S.I. units (second, meters, Newtons, ...)
If the header above contains a line with 'inDegrees', this indicates whether rotational values are in degrees (yes) or radians (no).

endheader
time	pelvis_tilt	pelvis_list	pelvis_rotation	pelvis_tx	pelvis_ty	pelvis_tz	hip_flexion_r	hip_adduction_r	hip_rotation_r	knee_angle_r	ankle_angle_r	subtalar_angle_r	hip_flexion_l	hip_adduction_l	hip_rotation_l	knee_angle_l	ankle_angle_l	subtalar_angle_l	lumbar_extension	lumbar_bending	lumbar_rotation
      2.02000000	      1.49942005	     -2.74442678	   -247.41569019	     -0.49936240	      0.93223477	      0.37392734	     -1.08119111	     10.67419992	     12.56688085	    -45.60430622	     -0.45224149	      9.62821626	     27.31408656	     -0.45411212	     25.62523925	    -26.81403634	      7.55863763	     10.91629509	      1.08768140	      3.29443254	     -5.38317807
      2.03000000	      1.15544506	     -2.81349038	   -248.28703249	     -0.50248780	      0.93287096	      0.36462336	      0.49086311	     10.08530679	     11.30843123	    -48.52028948	     -2.72521005	      9.89007411	     26.81591919	     -0.42296602	     24.54011510	    -27.37315299	      8.36804493	     10.80204143	      0.99371076	      2.96774215	     -5.66782488
      2.04000000	      0.84261778	     -2.93270509	   -249.13155435	     -0.50546826	      0.93347059	      0.35560692	      2.27122572	      9.43345868	      9.93708136	    -51.47652850	     -5.13816710	      9.17121894	     26.32635815	     -0.39727866	     23.50861352	    -27.79832850	      9.17763766	     10.57469230	      0.94953431	      2.66766793	     -6.02933356
      2.05000000	      0.45428597	     -3.03744043	   -250.01968795	     -0.50830563	      0.93419896	      0.34679184	      4.09877741	      8.62869451	      8.58941906	    -54.40301675	     -7.46566237	      8.07498398	     25.70717491	     -0.32488446	     22.48224237	    -28.05455208	      9.92867304	     10.26588982	      0.84258248	      2.31136652	     -6.34765656
      2.06000000	      0.04151990	     -3.13071671	   -250.91060303	     -0.51104473	      0.93501429	      0.33815814	      5.95515282	      7.73035046	      7.27936058	    -57.22429248	     -9.57508045	      6.72417054	     25.01217085	     -0.22177190	     21.50994475	    -28.18646239	     10.61355310	      9.91519301	      0.70954776	      1.94870011	     -6.68478828
      2.07000000	     -0.36988243	     -3.22602094	   -251.79044306	     -0.51369834	      0.93587789	      0.32969016	      7.82934609	      6.77454710	      6.03779476	    -59.89044750	    -11.25118848	      5.38943435	     24.27445862	     -0.09541373	     20.62700012	    -28.21165014	     11.25771327	      9.52540824	      0.57840803	      1.59824229	     -7.03147603
      2.08000000	     -0.79142615	     -3.26036735	   -252.65748703	     -0.51623758	      0.93690208	      0.32129730	      9.61481863	      5.79386164	      4.88369579	    -62.33989656	    -12.41269805	      4.06494838	     23.44147111	      0.03488789	     19.76365961	    -28.14850464	     11.78336415	      9.13182336	      0.38452317	      1.26385070	     -7.42918850
      2.09000000	     -1.17927017	     -3.28690836	   -253.50205714	     -0.51865209	      0.93797600	      0.31298248	     11.37091976	      4.83565836	      3.82063939	    -64.56921901	    -12.88512264	      2.96828029	     22.57747180	      0.15225630	     18.97608822	    -27.99456060	     12.27764027	      8.73251868	      0.20470588	      0.96918037	     -7.83957099
      2.10000000	     -1.52310487	     -3.27768358	   -254.31837013	     -0.52089310	      0.93913774	      0.30472526	     13.06431149	      3.92731323	      2.81004979	    -66.55163955	    -12.75347435	      2.05750515	     21.67643589	      0.23233622	     18.22824784	    -27.78245863	     12.69470165	      8.35272635	      0.00777606	      0.72636993	     -8.24873441
      2.11000000	     -1.80351676	     -3.24912182	   -255.10481153	     -0.52293074	      0.94036252	      0.29647213	     14.69714112	      3.11372787	      1.85008616	    -68.26601111	    -12.06240770	      1.16690494	     20.72522007	      0.25579130	     17.56841862	    -27.46296974	     13.10629920	      7.97033844	     -0.17521293	      0.54887832	     -8.67823668
      2.12000000	     -2.00239041	     -3.20205976	   -255.86257571	     -0.52471260	      0.94162906	      0.28825014	     16.27609725	      2.41878573	      0.90752263	    -69.70053101	    -10.98943962	      0.35554352	     19.76653452	      0.19559218	     16.92378729	    -27.09381497	     13.46705663	      7.61862301	     -0.34916211	      0.44947786	     -9.10422974
      2.13000000	     -2.11289678	     -3.14202987	   -256.59609699	     -0.52621018	      0.94292215	      0.28004685	     17.79948263	      1.86646066	     -0.02362399	    -70.84347611	     -9.69021877	     -0.42295014	     18.79712600	      0.04080678	     16.30187025	    -26.66562515	     13.80286601	      7.29886600	     -0.50913526	      0.43211735	     -9.52329420
      2.14000000	     -2.14894840	     -3.08951827	   -257.32022768	     -0.52739961	      0.94421134	      0.27187340	     19.28659513	      1.45479064	     -0.92079975	    -71.70129150	     -8.26091003	     -0.95203289	     17.83038343	     -0.19726241	     15.68140710	    -26.17778408	     14.11053316	      7.10395942	     -0.64210149	      0.47574688	     -9.92015624
      2.15000000	     -2.05046353	     -3.01144419	   -258.01240102	     -0.52829356	      0.94550568	      0.26371095	     20.69464504	      1.24762745	     -1.85937353	    -72.24314862	     -6.88666635	     -1.72764111	     16.84794212	     -0.57923528	     15.11321717	    -25.64314611	     14.44056813	      6.78152430	     -0.77158477	      0.65580848	    -10.29497099
      2.16000000	     -1.88485344	     -2.95389365	   -258.69109873	     -0.52890611	      0.94674031	      0.25561919	     22.07488286	      1.16807290	     -2.77451177	    -72.51513950	     -5.50028612	     -1.97018701	     15.90115531	     -1.03398441	     14.51617581	    -25.09228251	     14.74711680	      6.69356732	     -0.87561396	      0.88902555	    -10.65656230
      2.17000000	     -1.65779517	     -2.89980548	   -259.39357986	     -0.52922400	      0.94792326	      0.24756465	     23.40629828	      1.22093187	     -3.65752613	    -72.51971407	     -4.25134887	     -2.26498167	     14.95009038	     -1.56894695	     13.85550785	    -24.50509978	     15.04038579	      6.51168145	     -0.97497149	      1.17876602	    -10.98120326
      2.18000000	     -1.39243534	     -2.87074795	   -260.05958923	     -0.52940519	      0.94901785	      0.23959528	     24.70124118	      1.31994103	     -4.57410570	    -72.27584990	     -3.07303705	     -2.36298302	     14.02049887	     -2.12446252	     13.23349951	    -23.89184182	     15.31341612	      6.39460355	     -1.05454951	      1.50266819	    -11.29622891
      2.19000000	     -1.08659218	     -2.84507596	   -260.72187292	     -0.52940324	      0.95002775	      0.23167072	     25.93914960	      1.47771764	     -5.49814557	    -71.79718249	     -2.01507256	     -2.26945504	     13.09401176	     -2.72144452	     12.57513120	    -23.27018151	     15.58360619	      6.29016870	     -1.13585650	      1.86691734	    -11.59254936
